# xmcd
#
# Track frame offsets:
#	183
#	14013
#	28635
#	40840
#	49450
#	62633
#	76433
#	86918
#	99018
#	105450
#	118703
#	141475
#	153525
#	165663
#	178308
#	189973
#	209793
#
# Disc length: 2943
#
# Revision: 2
# Processed by: cddbd v1.5.1PL0 Copyright (c) Steve Scherf et al.
# Submitted via: CDex 1.50
# Normalized: r0:TSWAP
#
DISCID=f10b7d11
DTITLE=Lipidil Sampler - Best of Jazz - Cd 2
DYEAR=1996
DGENRE=Jazz
TTITLE0=Louis Armstrong - Ain´t misbehavin´
TTITLE1=Tony Bennett - As time goes by
TTITLE2=Ray Charles - C. C. Rider
TTITLE3=Nat King Cole - Yes Sir, that´s my baby
TTITLE4=Bing Crosby - Where the blue of the night meets the gold of the day
TTITLE5=Sammy Davis Junior - Smoke, smoke, smoke that cigarette
TTITLE6=Ella Fitzgerald and Duke Ellington - Wives and lovers
TTITLE7=John Lee Hooker - Whiskey and Wimmen
TTITLE8=Frank Sinatra - It all depends on you
TTITLE9=Sarah Vaughan - That old black magic
TTITLE10=Nina Simone - I loves you, Porgy
TTITLE11=Billy Holiday - Let´s call the whole thing off
TTITLE12=Brook Benton - Kidio
TTITLE13=Miles Davis and Freddie Hubbard - Yardbird suite
TTITLE14=Fats Domino - Ain´t that a shame
TTITLE15=Al Jarreau - Lean on me
TTITLE16=The Platters - Smonke gets in your eyes
EXTD=YEAR: 1996
EXTT0=
EXTT1=
EXTT2=
EXTT3=
EXTT4=
EXTT5=
EXTT6=
EXTT7=
EXTT8=
EXTT9=
EXTT10=
EXTT11=
EXTT12=
EXTT13=
EXTT14=
EXTT15=
EXTT16=
PLAYORDER=
